<?xml version="1.0" encoding="UTF-8" standalone="no"?>
<svg
   width="244"
   height="293.47101"
   viewBox="0 0 244 293.47101"
   fill="none"
   version="1.1"
   id="svg1"
   sodipodi:docname="resend_logo.svg"
   inkscape:version="1.3.2 (091e20e, 2023-11-25, custom)"
   xmlns:inkscape="http://www.inkscape.org/namespaces/inkscape"
   xmlns:sodipodi="http://sodipodi.sourceforge.net/DTD/sodipodi-0.dtd"
   xmlns="http://www.w3.org/2000/svg"
   xmlns:svg="http://www.w3.org/2000/svg">
  <defs
     id="defs1" />
  <sodipodi:namedview
     id="namedview1"
     pagecolor="#ffffff"
     bordercolor="#000000"
     borderopacity="0.25"
     inkscape:showpageshadow="2"
     inkscape:pageopacity="0.0"
     inkscape:pagecheckerboard="0"
     inkscape:deskcolor="#d1d1d1"
     inkscape:zoom="1.955"
     inkscape:cx="113.55499"
     inkscape:cy="146.03581"
     inkscape:window-width="2560"
     inkscape:window-height="1369"
     inkscape:window-x="1672"
     inkscape:window-y="-8"
     inkscape:window-maximized="1"
     inkscape:current-layer="svg1" />
  <path
     d="M 0,293.471 V 0 h 132.062 c 18.726,0 35.635,4.053 50.728,12.158 15.373,8.105 27.391,19.285 36.055,33.54 8.665,13.974 12.997,29.906 12.997,47.793 0,18.447 -4.332,35.077 -12.997,49.89 -8.664,14.534 -20.543,25.994 -35.636,34.378 -15.092,8.385 -32.142,12.578 -51.147,12.578 H 67.917 v 103.134 z m 162.667,0 L 88.041,160.99 160.99,150.509 244,293.471 Z M 67.917,135.835 h 57.856 c 7.267,0 13.556,-1.537 18.866,-4.612 5.59,-3.354 9.782,-7.965 12.577,-13.835 3.075,-5.869 4.612,-12.577 4.612,-20.123 0,-7.547 -1.677,-14.115 -5.031,-19.705 -3.354,-5.869 -8.245,-10.341 -14.673,-13.416 -6.149,-3.074 -13.696,-4.611 -22.64,-4.611 H 67.917 Z"
     fill="#000000"
     id="path1" />
</svg>
